<svg width="14" height="14" viewBox="0 0 14 14" fill="none" xmlns="http://www.w3.org/2000/svg">
<g clip-path="url(#clip0_241_44)">
<path d="M7 0C5.61553 0 4.26216 0.410543 3.11101 1.17971C1.95987 1.94888 1.06266 3.04213 0.532846 4.32122C0.003033 5.6003 -0.13559 7.00776 0.134506 8.36563C0.404603 9.7235 1.07129 10.9708 2.05026 11.9497C3.02922 12.9287 4.2765 13.5954 5.63437 13.8655C6.99224 14.1356 8.3997 13.997 9.67879 13.4672C10.9579 12.9373 12.0511 12.0401 12.8203 10.889C13.5895 9.73785 14 8.38447 14 7C13.9985 5.14396 13.2605 3.36438 11.948 2.05196C10.6356 0.739539 8.85604 0.00154477 7 0V0ZM9.70725 7.448L6.20725 10.3647C6.14842 10.4138 6.08049 10.4508 6.00735 10.4737C5.9342 10.4965 5.85727 10.5047 5.78095 10.4978C5.70463 10.491 5.63041 10.4691 5.56253 10.4336C5.49465 10.398 5.43444 10.3494 5.38534 10.2906C5.33623 10.2318 5.2992 10.1638 5.27635 10.0907C5.2535 10.0175 5.24527 9.9406 5.25215 9.86428C5.25903 9.78796 5.28088 9.71374 5.31644 9.64586C5.352 9.57798 5.40059 9.51777 5.45942 9.46867L8.42159 7L5.45942 4.53133C5.40059 4.48223 5.352 4.42202 5.31644 4.35414C5.28088 4.28626 5.25903 4.21204 5.25215 4.13572C5.24527 4.0594 5.2535 3.98247 5.27635 3.90932C5.2992 3.83618 5.33623 3.76825 5.38534 3.70942C5.43444 3.65058 5.49465 3.602 5.56253 3.56644C5.63041 3.53087 5.70463 3.50903 5.78095 3.50215C5.85727 3.49527 5.9342 3.50349 6.00735 3.52634C6.08049 3.5492 6.14842 3.58623 6.20725 3.63533L9.70725 6.552C9.7729 6.60675 9.82572 6.67525 9.86196 6.75267C9.8982 6.83008 9.91699 6.91452 9.91699 7C9.91699 7.08548 9.8982 7.16992 9.86196 7.24733C9.82572 7.32475 9.7729 7.39325 9.70725 7.448Z" fill="white"/>
</g>
<defs>
<clipPath id="clip0_241_44">
<rect width="14" height="14" fill="white"/>
</clipPath>
</defs>
</svg>
