<svg width="138" height="140" viewBox="0 0 138 140" fill="none" xmlns="http://www.w3.org/2000/svg">
<path d="M137.25 118.475C134.029 104.277 126.44 91.4454 115.55 81.7833C110.119 88.9943 103.088 94.8449 95.0093 98.874C86.9311 102.903 78.0273 105 69 105C59.9728 105 51.069 102.903 42.9908 98.874C34.9126 94.8449 27.8808 88.9943 22.45 81.7833C11.5597 91.4454 3.97086 104.277 0.750047 118.475C0.167948 121.059 0.169605 123.74 0.754898 126.324C1.34019 128.907 2.49438 131.327 4.13338 133.408C5.77505 135.468 7.86038 137.13 10.2339 138.271C12.6075 139.413 15.208 140.004 17.8417 140H120.158C122.792 140.004 125.393 139.413 127.766 138.271C130.14 137.13 132.225 135.468 133.867 133.408C135.506 131.327 136.66 128.907 137.245 126.324C137.83 123.74 137.832 121.059 137.25 118.475Z" fill="#FFFCFC"/>
<path d="M69.0002 93.3333C94.7734 93.3333 115.667 72.44 115.667 46.6667C115.667 20.8934 94.7734 0 69.0002 0C43.2269 0 22.3335 20.8934 22.3335 46.6667C22.3335 72.44 43.2269 93.3333 69.0002 93.3333Z" fill="#FFFCFC"/>
</svg>
