<svg width="140" height="140" viewBox="0 0 140 140" fill="none" xmlns="http://www.w3.org/2000/svg">
<g clip-path="url(#clip0_235_106)">
<path d="M101 81.6667C96.9049 81.6769 92.8586 82.5545 89.1274 84.2416C85.3961 85.9288 82.0647 88.3872 79.3523 91.455L58.5098 79.2984C60.7188 73.2963 60.7188 66.7038 58.5098 60.7017L79.3523 48.545C83.9085 53.5743 90.082 56.8495 96.8011 57.8018C103.52 58.7542 110.361 57.3237 116.135 53.7586C121.909 50.1936 126.253 44.7191 128.412 38.2854C130.571 31.8518 130.409 24.8652 127.954 18.5386C125.499 12.2119 120.907 6.9446 114.973 3.65098C109.04 0.357364 102.14 -0.754597 95.4728 0.508126C88.805 1.77085 82.79 5.32853 78.4717 10.5636C74.1535 15.7986 71.8047 22.3805 71.8331 29.1667C71.8688 32.3344 72.4286 35.4743 73.4898 38.4592L52.6473 50.6217C48.7177 46.2013 43.537 43.0801 37.7926 41.672C32.0481 40.2639 26.0113 40.6355 20.4829 42.7376C14.9545 44.8396 10.1958 48.5727 6.83803 53.4417C3.48027 58.3107 1.68213 64.0855 1.68213 70C1.68213 75.9146 3.48027 81.6894 6.83803 86.5583C10.1958 91.4273 14.9545 95.1605 20.4829 97.2625C26.0113 99.3645 32.0481 99.7362 37.7926 98.3281C43.537 96.92 48.7177 93.7988 52.6473 89.3784L73.4898 101.541C72.4286 104.526 71.8688 107.666 71.8331 110.833C71.8331 116.602 73.5437 122.241 76.7486 127.037C79.9535 131.834 84.5087 135.572 89.8382 137.78C95.1677 139.987 101.032 140.565 106.69 139.44C112.348 138.314 117.545 135.536 121.624 131.457C125.703 127.378 128.481 122.181 129.606 116.524C130.731 110.866 130.154 105.001 127.946 99.6718C125.739 94.3423 122 89.7871 117.204 86.5822C112.408 83.3773 106.768 81.6667 101 81.6667Z" fill="#FFFCFC"/>
</g>
<defs>
<clipPath id="clip0_235_106">
<rect width="140" height="140" fill="white"/>
</clipPath>
</defs>
</svg>
