<svg width="140" height="140" viewBox="0 0 140 140" fill="none" xmlns="http://www.w3.org/2000/svg">
<path d="M93.0417 82.1334L76.825 86.1584C75.3162 86.5281 73.77 86.7238 72.2167 86.7417C69.7206 86.7457 67.2487 86.2525 64.9451 85.2911C62.6416 84.3296 60.5526 82.9191 58.8 81.1417C56.5062 78.8209 54.8459 75.9505 53.9779 72.805C53.1098 69.6595 53.0629 66.3439 53.8417 63.1751L57.925 46.9584C58.9526 42.8563 61.0687 39.1077 64.05 36.1084L88.4917 11.6667H23.3333C17.145 11.6667 11.21 14.1251 6.83418 18.5009C2.45833 22.8768 0 28.8117 0 35.0001L0 116.667C0 122.855 2.45833 128.79 6.83418 133.166C11.21 137.542 17.145 140 23.3333 140H105C111.188 140 117.123 137.542 121.499 133.166C125.875 128.79 128.333 122.855 128.333 116.667V51.5084L103.892 75.9501C100.896 78.9482 97.148 81.0841 93.0417 82.1334Z" fill="white"/>
<path d="M135.876 7.54253L132.458 4.12419C131.15 2.81651 129.598 1.7792 127.889 1.07148C126.181 0.363769 124.349 -0.000488281 122.5 -0.000488281C120.651 -0.000488281 118.82 0.363769 117.111 1.07148C115.403 1.7792 113.85 2.81651 112.543 4.12419L72.2927 44.3742C70.7978 45.8692 69.7372 47.7423 69.2243 49.7934L65.176 65.9925C64.8701 67.2127 64.8857 68.4913 65.2211 69.7037C65.5565 70.9161 66.2003 72.0209 67.0898 72.9104C67.9793 73.7999 69.0841 74.4437 70.2965 74.7791C71.5089 75.1145 72.7875 75.1301 74.0077 74.8242L90.2068 70.7759C92.2579 70.263 94.131 69.2024 95.626 67.7075L135.876 27.4575C137.184 26.1499 138.221 24.5975 138.929 22.889C139.636 21.1805 140.001 19.3493 140.001 17.5C140.001 15.6507 139.636 13.8196 138.929 12.111C138.221 10.4025 137.184 8.85014 135.876 7.54253Z" fill="white"/>
</svg>
