<svg width="160" height="62" viewBox="0 0 160 62" fill="none" xmlns="http://www.w3.org/2000/svg">
<path d="M1.42045 10.9801V5.90909H25.3125V10.9801H16.4062V35H10.3267V10.9801H1.42045ZM35.9126 35.4261C33.6683 35.4261 31.7365 34.9716 30.1172 34.0625C28.5073 33.1439 27.2668 31.8466 26.3956 30.1705C25.5244 28.4848 25.0888 26.4915 25.0888 24.1903C25.0888 21.946 25.5244 19.9763 26.3956 18.2812C27.2668 16.5862 28.4931 15.2652 30.0746 14.3182C31.6655 13.3712 33.531 12.8977 35.6712 12.8977C37.1106 12.8977 38.4505 13.1297 39.6911 13.5938C40.9411 14.0483 42.0301 14.7348 42.9581 15.6534C43.8956 16.572 44.6248 17.7273 45.1456 19.1193C45.6664 20.5019 45.9268 22.1212 45.9268 23.9773V25.6392H27.5036V21.8892H40.2308C40.2308 21.018 40.0414 20.2462 39.6626 19.5739C39.2839 18.9015 38.7583 18.3759 38.0859 17.9972C37.4231 17.6089 36.6513 17.4148 35.7706 17.4148C34.852 17.4148 34.0376 17.6278 33.3274 18.054C32.6267 18.4706 32.0774 19.0341 31.6797 19.7443C31.282 20.4451 31.0784 21.2263 31.0689 22.0881V25.6534C31.0689 26.733 31.2678 27.6657 31.6655 28.4517C32.0727 29.2377 32.6456 29.8438 33.3842 30.2699C34.1229 30.696 34.9988 30.9091 36.0121 30.9091C36.6844 30.9091 37.3 30.8144 37.8587 30.625C38.4174 30.4356 38.8956 30.1515 39.2933 29.7727C39.6911 29.3939 39.9941 28.9299 40.2024 28.3807L45.799 28.75C45.5149 30.0947 44.9325 31.2689 44.0518 32.2727C43.1806 33.267 42.0537 34.0436 40.6712 34.6023C39.2981 35.1515 37.7119 35.4261 35.9126 35.4261ZM55.9268 5.90909V35H49.8757V5.90909H55.9268ZM70.7173 35.4261C68.473 35.4261 66.5412 34.9716 64.9219 34.0625C63.312 33.1439 62.0715 31.8466 61.2003 30.1705C60.3291 28.4848 59.8935 26.4915 59.8935 24.1903C59.8935 21.946 60.3291 19.9763 61.2003 18.2812C62.0715 16.5862 63.2978 15.2652 64.8793 14.3182C66.4702 13.3712 68.3357 12.8977 70.4759 12.8977C71.9152 12.8977 73.2552 13.1297 74.4957 13.5938C75.7457 14.0483 76.8348 14.7348 77.7628 15.6534C78.7003 16.572 79.4295 17.7273 79.9503 19.1193C80.4711 20.5019 80.7315 22.1212 80.7315 23.9773V25.6392H62.3082V21.8892H75.0355C75.0355 21.018 74.8461 20.2462 74.4673 19.5739C74.0885 18.9015 73.563 18.3759 72.8906 17.9972C72.2277 17.6089 71.456 17.4148 70.5753 17.4148C69.6567 17.4148 68.8423 17.6278 68.1321 18.054C67.4313 18.4706 66.8821 19.0341 66.4844 19.7443C66.0866 20.4451 65.883 21.2263 65.8736 22.0881V25.6534C65.8736 26.733 66.0724 27.6657 66.4702 28.4517C66.8774 29.2377 67.4503 29.8438 68.1889 30.2699C68.9276 30.696 69.8035 30.9091 70.8168 30.9091C71.4891 30.9091 72.1046 30.8144 72.6634 30.625C73.2221 30.4356 73.7003 30.1515 74.098 29.7727C74.4957 29.3939 74.7988 28.9299 75.0071 28.3807L80.6037 28.75C80.3196 30.0947 79.7372 31.2689 78.8565 32.2727C77.9853 33.267 76.8584 34.0436 75.4759 34.6023C74.1027 35.1515 72.5166 35.4261 70.7173 35.4261ZM102.834 19.4034L97.294 19.7443C97.1993 19.2708 96.9957 18.8447 96.6832 18.4659C96.3707 18.0777 95.9588 17.7699 95.4474 17.5426C94.9455 17.3059 94.3442 17.1875 93.6435 17.1875C92.706 17.1875 91.9152 17.3864 91.2713 17.7841C90.6274 18.1723 90.3054 18.6932 90.3054 19.3466C90.3054 19.8674 90.5137 20.3078 90.9304 20.6676C91.3471 21.0275 92.062 21.3163 93.0753 21.5341L97.0241 22.3295C99.1454 22.7652 100.727 23.4659 101.768 24.4318C102.81 25.3977 103.331 26.6667 103.331 28.2386C103.331 29.6686 102.91 30.9233 102.067 32.0028C101.233 33.0824 100.088 33.9252 98.6293 34.5312C97.1804 35.1278 95.509 35.4261 93.6151 35.4261C90.7268 35.4261 88.4257 34.8248 86.7116 33.6222C85.0071 32.41 84.008 30.7623 83.7145 28.679L89.6662 28.3665C89.8461 29.2472 90.2817 29.9195 90.973 30.3835C91.6643 30.8381 92.5497 31.0653 93.6293 31.0653C94.6899 31.0653 95.5421 30.8617 96.1861 30.4545C96.8395 30.0379 97.1709 29.5028 97.1804 28.8494C97.1709 28.3002 96.9389 27.8504 96.4844 27.5C96.0298 27.1402 95.3291 26.8655 94.3821 26.6761L90.6037 25.9233C88.473 25.4972 86.8868 24.7585 85.8452 23.7074C84.813 22.6562 84.2969 21.3163 84.2969 19.6875C84.2969 18.286 84.6757 17.0786 85.4332 16.0653C86.2003 15.0521 87.2751 14.2708 88.6577 13.7216C90.0497 13.1723 91.6785 12.8977 93.544 12.8977C96.2997 12.8977 98.4683 13.4801 100.05 14.6449C101.641 15.8097 102.569 17.3958 102.834 19.4034ZM118.746 13.1818V17.7273H105.607V13.1818H118.746ZM108.59 7.95455H114.641V28.2955C114.641 28.8542 114.727 29.2898 114.897 29.6023C115.067 29.9053 115.304 30.1184 115.607 30.2415C115.92 30.3646 116.28 30.4261 116.687 30.4261C116.971 30.4261 117.255 30.4025 117.539 30.3551C117.823 30.2983 118.041 30.2557 118.192 30.2273L119.144 34.7301C118.841 34.8248 118.415 34.9337 117.866 35.0568C117.317 35.1894 116.649 35.2699 115.863 35.2983C114.405 35.3551 113.126 35.161 112.028 34.7159C110.939 34.2708 110.091 33.5795 109.485 32.642C108.879 31.7045 108.581 30.5208 108.59 29.0909V7.95455ZM128.91 35.4119C127.518 35.4119 126.277 35.1705 125.188 34.6875C124.099 34.1951 123.237 33.4706 122.603 32.5142C121.978 31.5483 121.665 30.3456 121.665 28.9062C121.665 27.6941 121.888 26.6761 122.333 25.8523C122.778 25.0284 123.384 24.3655 124.151 23.8636C124.918 23.3617 125.79 22.983 126.765 22.7273C127.75 22.4716 128.782 22.2917 129.862 22.1875C131.13 22.0549 132.153 21.9318 132.93 21.8182C133.706 21.6951 134.27 21.5152 134.62 21.2784C134.97 21.0417 135.146 20.6913 135.146 20.2273V20.142C135.146 19.2424 134.862 18.5464 134.293 18.054C133.735 17.5616 132.939 17.3153 131.907 17.3153C130.818 17.3153 129.951 17.5568 129.308 18.0398C128.664 18.5133 128.237 19.1098 128.029 19.8295L122.433 19.375C122.717 18.0492 123.275 16.9034 124.109 15.9375C124.942 14.9621 126.017 14.214 127.333 13.6932C128.659 13.1629 130.193 12.8977 131.935 12.8977C133.147 12.8977 134.308 13.0398 135.415 13.3239C136.533 13.608 137.522 14.0483 138.384 14.6449C139.255 15.2415 139.942 16.0085 140.444 16.946C140.946 17.8741 141.197 18.9867 141.197 20.2841V35H135.458V31.9744H135.288C134.937 32.6562 134.469 33.2576 133.881 33.7784C133.294 34.2898 132.589 34.6922 131.765 34.9858C130.941 35.2699 129.989 35.4119 128.91 35.4119ZM130.643 31.2358C131.533 31.2358 132.319 31.0606 133.001 30.7102C133.683 30.3504 134.218 29.8674 134.606 29.2614C134.994 28.6553 135.188 27.9687 135.188 27.2017V24.8864C134.999 25.0095 134.738 25.1231 134.407 25.2273C134.085 25.322 133.72 25.4119 133.313 25.4972C132.906 25.5729 132.499 25.6439 132.092 25.7102C131.684 25.767 131.315 25.8191 130.984 25.8665C130.273 25.9706 129.653 26.1364 129.123 26.3636C128.593 26.5909 128.181 26.8987 127.887 27.2869C127.594 27.6657 127.447 28.1392 127.447 28.7074C127.447 29.5312 127.745 30.161 128.342 30.5966C128.948 31.0227 129.715 31.2358 130.643 31.2358ZM157.496 13.1818V17.7273H144.357V13.1818H157.496ZM147.34 7.95455H153.391V28.2955C153.391 28.8542 153.477 29.2898 153.647 29.6023C153.817 29.9053 154.054 30.1184 154.357 30.2415C154.67 30.3646 155.03 30.4261 155.437 30.4261C155.721 30.4261 156.005 30.4025 156.289 30.3551C156.573 30.2983 156.791 30.2557 156.942 30.2273L157.894 34.7301C157.591 34.8248 157.165 34.9337 156.616 35.0568C156.067 35.1894 155.399 35.2699 154.613 35.2983C153.155 35.3551 151.876 35.161 150.778 34.7159C149.689 34.2708 148.841 33.5795 148.235 32.642C147.629 31.7045 147.331 30.5208 147.34 29.0909V7.95455Z" fill="white"/>
<path d="M45.3807 58V48.1818H46.8381V49.6648H46.9403C47.1193 49.179 47.4432 48.7848 47.9119 48.4822C48.3807 48.1797 48.9091 48.0284 49.4972 48.0284C49.608 48.0284 49.7464 48.0305 49.9126 48.0348C50.0788 48.0391 50.2045 48.0455 50.2898 48.054V49.5881C50.2386 49.5753 50.1214 49.5561 49.9382 49.5305C49.7592 49.5007 49.5696 49.4858 49.3693 49.4858C48.892 49.4858 48.4659 49.5859 48.0909 49.7862C47.7202 49.9822 47.4261 50.255 47.2088 50.6044C46.9957 50.9496 46.8892 51.3437 46.8892 51.7869V58H45.3807ZM55.8956 58.2045C54.9496 58.2045 54.1335 57.9957 53.4474 57.5781C52.7656 57.1562 52.2393 56.5682 51.8686 55.8139C51.5021 55.0554 51.3189 54.1733 51.3189 53.1676C51.3189 52.1619 51.5021 51.2756 51.8686 50.5085C52.2393 49.7372 52.755 49.1364 53.4155 48.706C54.0803 48.2713 54.8558 48.054 55.7422 48.054C56.2536 48.054 56.7585 48.1392 57.2571 48.3097C57.7557 48.4801 58.2095 48.7571 58.6186 49.1406C59.0277 49.5199 59.3537 50.0227 59.5966 50.6491C59.8395 51.2756 59.9609 52.0469 59.9609 52.9631V53.6023H52.3928V52.2983H58.4268C58.4268 51.7443 58.3161 51.25 58.0945 50.8153C57.8771 50.3807 57.5661 50.0376 57.1612 49.7862C56.7607 49.5348 56.2876 49.4091 55.7422 49.4091C55.1413 49.4091 54.6214 49.5582 54.1825 49.8565C53.7479 50.1506 53.4134 50.5341 53.179 51.0071C52.9446 51.4801 52.8274 51.9872 52.8274 52.5284V53.3977C52.8274 54.1392 52.9553 54.7678 53.2109 55.2834C53.4709 55.7947 53.831 56.1847 54.2912 56.4531C54.7514 56.7173 55.2862 56.8494 55.8956 56.8494C56.2919 56.8494 56.6499 56.794 56.9695 56.6832C57.2933 56.5682 57.5724 56.3977 57.8068 56.1719C58.0412 55.9418 58.2223 55.6562 58.3501 55.3153L59.8075 55.7244C59.6541 56.2188 59.3963 56.6534 59.0341 57.0284C58.6719 57.3991 58.2244 57.6889 57.6918 57.8977C57.1591 58.1023 56.5604 58.2045 55.8956 58.2045ZM68.4432 53.9858V48.1818H69.9517V58H68.4432V56.3381H68.3409C68.1108 56.8366 67.7528 57.2607 67.267 57.6101C66.7813 57.9553 66.1676 58.1278 65.4261 58.1278C64.8125 58.1278 64.267 57.9936 63.7898 57.7251C63.3125 57.4524 62.9375 57.0433 62.6648 56.4979C62.392 55.9482 62.2557 55.2557 62.2557 54.4205V48.1818H63.7642V54.3182C63.7642 55.0341 63.9645 55.6051 64.3651 56.0312C64.7699 56.4574 65.2855 56.6705 65.9119 56.6705C66.2869 56.6705 66.6683 56.5746 67.0561 56.3828C67.4482 56.1911 67.7763 55.897 68.0405 55.5007C68.3089 55.1044 68.4432 54.5994 68.4432 53.9858ZM72.7147 61.6818V48.1818H74.1721V49.7415H74.351C74.4618 49.571 74.6152 49.3537 74.8113 49.0895C75.0115 48.821 75.2971 48.5824 75.6678 48.3736C76.0428 48.1605 76.5499 48.054 77.1891 48.054C78.0158 48.054 78.7445 48.2607 79.3752 48.674C80.0059 49.0874 80.498 49.6733 80.8517 50.4318C81.2054 51.1903 81.3823 52.0852 81.3823 53.1165C81.3823 54.1562 81.2054 55.0575 80.8517 55.8203C80.498 56.5788 80.008 57.1669 79.3816 57.5845C78.7551 57.9979 78.0328 58.2045 77.2147 58.2045C76.584 58.2045 76.079 58.1001 75.6998 57.8913C75.3205 57.6783 75.0286 57.4375 74.824 57.169C74.6195 56.8963 74.4618 56.6705 74.351 56.4915H74.2232V61.6818H72.7147ZM74.1976 53.0909C74.1976 53.8324 74.3063 54.4865 74.5236 55.0533C74.7409 55.6158 75.0584 56.0568 75.476 56.3764C75.8936 56.6918 76.405 56.8494 77.0101 56.8494C77.6408 56.8494 78.1671 56.6832 78.589 56.3509C79.0151 56.0142 79.3347 55.5625 79.5478 54.9957C79.7651 54.4247 79.8738 53.7898 79.8738 53.0909C79.8738 52.4006 79.7672 51.7784 79.5542 51.2244C79.3453 50.6662 79.0279 50.2251 78.6017 49.9013C78.1799 49.5732 77.6493 49.4091 77.0101 49.4091C76.3965 49.4091 75.8809 49.5646 75.4632 49.8757C75.0456 50.1825 74.7303 50.6129 74.5172 51.1669C74.3042 51.7166 74.1976 52.358 74.1976 53.0909ZM85.1919 44.9091V58H83.6834V44.9091H85.1919ZM91.9435 58.2045C91.0572 58.2045 90.2795 57.9936 89.6104 57.5717C88.9457 57.1499 88.4258 56.5597 88.0508 55.8011C87.68 55.0426 87.4947 54.1562 87.4947 53.142C87.4947 52.1193 87.68 51.2266 88.0508 50.4638C88.4258 49.701 88.9457 49.1087 89.6104 48.6868C90.2795 48.2649 91.0572 48.054 91.9435 48.054C92.8299 48.054 93.6055 48.2649 94.2702 48.6868C94.9393 49.1087 95.4592 49.701 95.8299 50.4638C96.2049 51.2266 96.3924 52.1193 96.3924 53.142C96.3924 54.1562 96.2049 55.0426 95.8299 55.8011C95.4592 56.5597 94.9393 57.1499 94.2702 57.5717C93.6055 57.9936 92.8299 58.2045 91.9435 58.2045ZM91.9435 56.8494C92.6168 56.8494 93.1708 56.6768 93.6055 56.3317C94.0401 55.9865 94.3619 55.5327 94.5707 54.9702C94.7795 54.4077 94.8839 53.7983 94.8839 53.142C94.8839 52.4858 94.7795 51.8743 94.5707 51.3075C94.3619 50.7408 94.0401 50.2827 93.6055 49.9332C93.1708 49.5838 92.6168 49.4091 91.9435 49.4091C91.2702 49.4091 90.7163 49.5838 90.2816 49.9332C89.8469 50.2827 89.5252 50.7408 89.3164 51.3075C89.1076 51.8743 89.0032 52.4858 89.0032 53.142C89.0032 53.7983 89.1076 54.4077 89.3164 54.9702C89.5252 55.5327 89.8469 55.9865 90.2816 56.3317C90.7163 56.6768 91.2702 56.8494 91.9435 56.8494ZM101.584 58.2301C100.962 58.2301 100.398 58.1129 99.8904 57.8786C99.3833 57.6399 98.9806 57.2969 98.6824 56.8494C98.3841 56.3977 98.2349 55.8523 98.2349 55.2131C98.2349 54.6506 98.3457 54.1946 98.5673 53.8452C98.7889 53.4915 99.085 53.2145 99.4558 53.0142C99.8265 52.8139 100.236 52.6648 100.683 52.5668C101.135 52.4645 101.589 52.3835 102.045 52.3239C102.641 52.2472 103.125 52.1896 103.496 52.1513C103.871 52.1087 104.143 52.0384 104.314 51.9403C104.488 51.8423 104.576 51.6719 104.576 51.429V51.3778C104.576 50.7472 104.403 50.2571 104.058 49.9077C103.717 49.5582 103.199 49.3835 102.505 49.3835C101.785 49.3835 101.22 49.5412 100.811 49.8565C100.402 50.1719 100.114 50.5085 99.948 50.8665L98.5162 50.3551C98.7718 49.7585 99.1127 49.294 99.5389 48.9616C99.9693 48.625 100.438 48.3906 100.945 48.2585C101.456 48.1222 101.959 48.054 102.454 48.054C102.769 48.054 103.131 48.0923 103.54 48.169C103.954 48.2415 104.352 48.3928 104.736 48.6229C105.123 48.853 105.445 49.2003 105.701 49.6648C105.956 50.1293 106.084 50.7514 106.084 51.5312V58H104.576V56.6705H104.499C104.397 56.8835 104.226 57.1115 103.988 57.3544C103.749 57.5973 103.432 57.804 103.035 57.9744C102.639 58.1449 102.155 58.2301 101.584 58.2301ZM101.814 56.875C102.411 56.875 102.914 56.7578 103.323 56.5234C103.736 56.2891 104.047 55.9865 104.256 55.6158C104.469 55.245 104.576 54.8551 104.576 54.446V53.0653C104.512 53.142 104.371 53.2124 104.154 53.2763C103.941 53.3359 103.694 53.3892 103.412 53.4361C103.135 53.4787 102.865 53.517 102.601 53.5511C102.341 53.581 102.13 53.6065 101.968 53.6278C101.576 53.679 101.209 53.7621 100.868 53.8771C100.532 53.9879 100.259 54.1562 100.05 54.3821C99.8457 54.6037 99.7434 54.9062 99.7434 55.2898C99.7434 55.8139 99.9373 56.2102 100.325 56.4787C100.717 56.7429 101.214 56.875 101.814 56.875ZM112.545 58.2045C111.727 58.2045 111.005 57.9979 110.378 57.5845C109.752 57.1669 109.262 56.5788 108.908 55.8203C108.554 55.0575 108.377 54.1562 108.377 53.1165C108.377 52.0852 108.554 51.1903 108.908 50.4318C109.262 49.6733 109.754 49.0874 110.385 48.674C111.015 48.2607 111.744 48.054 112.571 48.054C113.21 48.054 113.715 48.1605 114.086 48.3736C114.461 48.5824 114.746 48.821 114.942 49.0895C115.142 49.3537 115.298 49.571 115.409 49.7415H115.537V44.9091H117.045V58H115.588V56.4915H115.409C115.298 56.6705 115.14 56.8963 114.936 57.169C114.731 57.4375 114.439 57.6783 114.06 57.8913C113.681 58.1001 113.176 58.2045 112.545 58.2045ZM112.75 56.8494C113.355 56.8494 113.866 56.6918 114.284 56.3764C114.701 56.0568 115.019 55.6158 115.236 55.0533C115.453 54.4865 115.562 53.8324 115.562 53.0909C115.562 52.358 115.456 51.7166 115.243 51.1669C115.029 50.6129 114.714 50.1825 114.297 49.8757C113.879 49.5646 113.363 49.4091 112.75 49.4091C112.11 49.4091 111.578 49.5732 111.152 49.9013C110.73 50.2251 110.412 50.6662 110.199 51.2244C109.99 51.7784 109.886 52.4006 109.886 53.0909C109.886 53.7898 109.993 54.4247 110.206 54.9957C110.423 55.5625 110.743 56.0142 111.164 56.3509C111.591 56.6832 112.119 56.8494 112.75 56.8494ZM127.304 58L124.313 48.1818H125.898L128.02 55.6989H128.123L130.219 48.1818H131.83L133.901 55.6733H134.003L136.125 48.1818H137.711L134.719 58H133.236L131.088 50.4574H130.935L128.787 58H127.304ZM143.487 58.2045C142.541 58.2045 141.725 57.9957 141.039 57.5781C140.357 57.1562 139.831 56.5682 139.46 55.8139C139.094 55.0554 138.911 54.1733 138.911 53.1676C138.911 52.1619 139.094 51.2756 139.46 50.5085C139.831 49.7372 140.347 49.1364 141.007 48.706C141.672 48.2713 142.448 48.054 143.334 48.054C143.845 48.054 144.35 48.1392 144.849 48.3097C145.347 48.4801 145.801 48.7571 146.21 49.1406C146.619 49.5199 146.945 50.0227 147.188 50.6491C147.431 51.2756 147.553 52.0469 147.553 52.9631V53.6023H139.985V52.2983H146.019C146.019 51.7443 145.908 51.25 145.686 50.8153C145.469 50.3807 145.158 50.0376 144.753 49.7862C144.352 49.5348 143.879 49.4091 143.334 49.4091C142.733 49.4091 142.213 49.5582 141.774 49.8565C141.34 50.1506 141.005 50.5341 140.771 51.0071C140.536 51.4801 140.419 51.9872 140.419 52.5284V53.3977C140.419 54.1392 140.547 54.7678 140.803 55.2834C141.063 55.7947 141.423 56.1847 141.883 56.4531C142.343 56.7173 142.878 56.8494 143.487 56.8494C143.884 56.8494 144.242 56.794 144.561 56.6832C144.885 56.5682 145.164 56.3977 145.399 56.1719C145.633 55.9418 145.814 55.6562 145.942 55.3153L147.399 55.7244C147.246 56.2188 146.988 56.6534 146.626 57.0284C146.264 57.3991 145.816 57.6889 145.284 57.8977C144.751 58.1023 144.152 58.2045 143.487 58.2045ZM150.052 58V44.9091H151.561V49.7415H151.688C151.799 49.571 151.953 49.3537 152.149 49.0895C152.349 48.821 152.634 48.5824 153.005 48.3736C153.38 48.1605 153.887 48.054 154.526 48.054C155.353 48.054 156.082 48.2607 156.713 48.674C157.343 49.0874 157.835 49.6733 158.189 50.4318C158.543 51.1903 158.72 52.0852 158.72 53.1165C158.72 54.1562 158.543 55.0575 158.189 55.8203C157.835 56.5788 157.345 57.1669 156.719 57.5845C156.093 57.9979 155.37 58.2045 154.552 58.2045C153.921 58.2045 153.416 58.1001 153.037 57.8913C152.658 57.6783 152.366 57.4375 152.161 57.169C151.957 56.8963 151.799 56.6705 151.688 56.4915H151.509V58H150.052ZM151.535 53.0909C151.535 53.8324 151.644 54.4865 151.861 55.0533C152.078 55.6158 152.396 56.0568 152.813 56.3764C153.231 56.6918 153.742 56.8494 154.347 56.8494C154.978 56.8494 155.504 56.6832 155.926 56.3509C156.352 56.0142 156.672 55.5625 156.885 54.9957C157.102 54.4247 157.211 53.7898 157.211 53.0909C157.211 52.4006 157.105 51.7784 156.892 51.2244C156.683 50.6662 156.365 50.2251 155.939 49.9013C155.517 49.5732 154.987 49.4091 154.347 49.4091C153.734 49.4091 153.218 49.5646 152.801 49.8757C152.383 50.1825 152.068 50.6129 151.855 51.1669C151.642 51.7166 151.535 52.358 151.535 53.0909Z" fill="white"/>
</svg>
