<svg width="134" height="140" viewBox="0 0 134 140" fill="none" xmlns="http://www.w3.org/2000/svg">
<path d="M126.554 77.4667C126.051 77.164 125.645 76.7222 125.386 76.1944C125.128 75.6666 125.027 75.0753 125.096 74.4917C125.213 73.0333 125.271 71.5167 125.271 70C125.271 68.4833 125.213 66.9667 125.096 65.5083C125.027 64.9247 125.128 64.3334 125.386 63.8056C125.645 63.2778 126.051 62.836 126.554 62.5333C129.916 60.5885 132.369 57.3898 133.375 53.6388C134.381 49.8879 133.858 45.891 131.921 42.525L123.229 27.475C122.263 25.8065 120.976 24.3452 119.444 23.1749C117.911 22.0047 116.162 21.1484 114.298 20.6552C112.434 20.1621 110.491 20.0417 108.58 20.3011C106.669 20.5605 104.828 21.1944 103.163 22.1667C102.682 22.4261 102.138 22.547 101.592 22.5161C101.046 22.4852 100.52 22.3037 100.071 21.9917C97.4895 20.2345 94.7791 18.6745 91.9628 17.325C91.452 17.0886 91.0205 16.7095 90.7203 16.2334C90.4201 15.7573 90.2642 15.2045 90.2712 14.6417C90.2589 10.7622 88.7123 7.04522 85.9691 4.30204C83.2259 1.55886 79.5089 0.012306 75.6295 0L58.2462 0C54.3576 0.0154309 50.6336 1.57099 47.8894 4.3261C45.1452 7.08121 43.6045 10.8114 43.6045 14.7C43.6056 15.2466 43.453 15.7826 43.1642 16.2467C42.8754 16.7108 42.462 17.0845 41.9712 17.325C39.1294 18.6613 36.3985 20.2218 33.8045 21.9917C33.3458 22.3108 32.805 22.4915 32.2466 22.5122C31.6882 22.5329 31.1355 22.3927 30.6545 22.1083C27.2885 20.1713 23.2916 19.6485 19.5407 20.6545C15.7897 21.6606 12.5909 24.1135 10.6462 27.475L1.95449 42.525C0.0174363 45.891 -0.505391 49.8879 0.500699 53.6388C1.50679 57.3898 3.95964 60.5885 7.32115 62.5333C7.82498 62.836 8.23065 63.2778 8.48936 63.8056C8.74807 64.3334 8.84882 64.9247 8.77949 65.5083C8.66282 66.9667 8.60449 68.4833 8.60449 70C8.60449 71.5167 8.66282 73.0333 8.77949 74.4917C8.84882 75.0753 8.74807 75.6666 8.48936 76.1944C8.23065 76.7222 7.82498 77.164 7.32115 77.4667C3.95964 79.4115 1.50679 82.6102 0.500699 86.3612C-0.505391 90.1121 0.0174363 94.109 1.95449 97.475L10.6462 112.525C11.6129 114.194 12.8995 115.655 14.4321 116.825C15.9648 117.995 17.7133 118.852 19.5775 119.345C21.4418 119.838 23.385 119.958 25.2958 119.699C27.2067 119.44 29.0475 118.806 30.7128 117.833C31.1896 117.56 31.7357 117.43 32.2847 117.461C32.8336 117.493 33.3616 117.683 33.8045 118.008C36.3861 119.765 39.0966 121.325 41.9128 122.675C42.4236 122.911 42.8552 123.29 43.1553 123.767C43.4555 124.243 43.6115 124.796 43.6045 125.358C43.6168 129.238 45.1633 132.955 47.9065 135.698C50.6497 138.441 54.3667 139.988 58.2462 140H75.6295C79.5181 139.985 83.2421 138.429 85.9863 135.674C88.7305 132.919 90.2712 129.189 90.2712 125.3C90.2701 124.753 90.4226 124.217 90.7114 123.753C91.0002 123.289 91.4136 122.916 91.9045 122.675C94.7463 121.339 97.4771 119.778 100.071 118.008C100.53 117.689 101.071 117.508 101.629 117.488C102.187 117.467 102.74 117.607 103.221 117.892C106.588 119.824 110.584 120.344 114.333 119.338C118.083 118.333 121.281 115.883 123.229 112.525L131.921 97.475C133.858 94.109 134.381 90.1121 133.375 86.3612C132.369 82.6102 129.916 79.4115 126.554 77.4667ZM66.9378 105C60.0155 105 53.2486 102.947 47.4929 99.1014C41.7371 95.2556 37.2511 89.7893 34.602 83.3939C31.953 76.9985 31.2599 69.9612 32.6103 63.1718C33.9608 56.3825 37.2942 50.1461 42.1891 45.2513C47.0839 40.3564 53.3203 37.023 60.1097 35.6725C66.899 34.322 73.9363 35.0151 80.3317 37.6642C86.7272 40.3133 92.1934 44.7993 96.0393 50.555C99.8851 56.3108 101.938 63.0777 101.938 70C101.929 79.2797 98.2381 88.1767 91.6763 94.7385C85.1146 101.3 76.2176 104.991 66.9378 105Z" fill="white"/>
<path d="M66.9378 93.3333C79.8245 93.3333 90.2712 82.8866 90.2712 70C90.2712 57.1133 79.8245 46.6666 66.9378 46.6666C54.0512 46.6666 43.6045 57.1133 43.6045 70C43.6045 82.8866 54.0512 93.3333 66.9378 93.3333Z" fill="white"/>
</svg>
